<svg width="650" height="650" viewBox="0 0 650 650" fill="none" xmlns="http://www.w3.org/2000/svg">
<circle cx="325" cy="325" r="325" fill="white"/>
<path d="M325 570C460.31 570 570 460.31 570 325C570 189.69 460.31 80 325 80C189.69 80 80 189.69 80 325C80 460.31 189.69 570 325 570Z" fill="#A53535"/>
<path d="M149.38 349.743C168.435 349.743 183.883 334.295 183.883 315.24C183.883 296.185 168.435 280.737 149.38 280.737C130.325 280.737 114.877 296.185 114.877 315.24C114.877 334.295 130.325 349.743 149.38 349.743Z" fill="#FFD00D"/>
<path d="M134.723 315.242C134.723 299.636 145.087 286.456 159.305 282.194C156.162 281.252 152.833 280.739 149.383 280.739C130.328 280.739 114.88 296.187 114.88 315.242C114.88 334.297 130.328 349.745 149.383 349.745C152.833 349.745 156.162 349.232 159.305 348.29C145.087 344.027 134.723 330.848 134.723 315.242Z" fill="#FFAF10"/>
<path d="M476.896 243.208C433.297 243.208 396.677 212.756 387.185 172.005H175.273C169.773 172.005 165.273 176.505 165.273 182.005V298.981C165.273 304.481 169.773 308.981 175.273 308.981H474.726C480.226 308.981 484.726 304.481 484.726 298.981V242.872C482.145 243.09 479.533 243.208 476.896 243.208Z" fill="#91E0E8"/>
<path d="M185.116 298.981V182.005C185.116 176.505 189.616 172.005 195.116 172.005H175.273C169.773 172.005 165.273 176.505 165.273 182.005V298.981C165.273 304.481 169.773 308.981 175.273 308.981H195.116C189.616 308.981 185.116 304.481 185.116 298.981Z" fill="#5DC1D8"/>
<path d="M304.499 516.876V569.139C311.26 569.699 318.095 570 325 570C359.653 570 392.618 562.79 422.499 549.813V516.876H304.499Z" fill="#37C47A"/>
<path d="M324.342 516.883H304.499V569.146C311.045 569.688 317.661 569.981 324.342 570V516.883Z" fill="#02AF8E"/>
<path d="M424.547 468.039V342.467C424.547 334.217 417.797 327.467 409.547 327.467H403.549C397.618 327.467 392.478 330.964 390.048 335.99C387.618 330.964 382.478 327.467 376.547 327.467H370.549C364.618 327.467 359.478 330.964 357.048 335.99C354.618 330.964 349.478 327.467 343.547 327.467H337.549C332.648 327.467 328.288 329.86 325.547 333.525V275.133C325.547 266.883 318.797 260.133 310.547 260.133H304.549C296.299 260.133 289.549 266.883 289.549 275.133V398.093L272.863 381.407C267.029 375.574 257.484 375.574 251.65 381.408L245.409 387.649C239.576 393.483 239.576 403.029 245.409 408.862L304.586 468.039H424.547Z" fill="#FFE2B8"/>
<path d="M324.429 468.039L265.252 408.862C259.419 403.029 259.419 393.483 265.252 387.649L271.493 381.408C271.713 381.188 271.948 380.993 272.179 380.789C266.306 375.599 257.265 375.793 251.651 381.408L245.41 387.649C239.577 393.483 239.577 403.029 245.41 408.862L304.587 468.039H324.429Z" fill="#FFC987"/>
<path d="M434.499 512.876C434.499 515.626 432.249 517.876 429.499 517.876H297.499C294.749 517.876 292.499 515.626 292.499 512.876V472.039C292.499 469.289 294.749 467.039 297.499 467.039H429.499C432.249 467.039 434.499 469.289 434.499 472.039V512.876Z" fill="#0F9390"/>
<path d="M312.342 512.876V472.039C312.342 469.289 314.592 467.039 317.342 467.039H297.499C294.749 467.039 292.499 469.289 292.499 472.039V512.876C292.499 515.626 294.749 517.876 297.499 517.876H317.342C314.592 517.876 312.342 515.626 312.342 512.876Z" fill="#0F9390"/>
<path d="M408.5 503.46C414.575 503.46 419.5 498.535 419.5 492.46C419.5 486.385 414.575 481.46 408.5 481.46C402.425 481.46 397.5 486.385 397.5 492.46C397.5 498.535 402.425 503.46 408.5 503.46Z" fill="white"/>
<path d="M306.499 246.5C302.356 246.5 298.999 243.142 298.999 239V224C298.999 219.858 302.356 216.5 306.499 216.5C310.642 216.5 313.999 219.858 313.999 224V239C313.999 243.142 310.642 246.5 306.499 246.5Z" fill="white"/>
<path d="M331.248 256.751C329.329 256.751 327.409 256.019 325.944 254.554C323.015 251.625 323.015 246.876 325.944 243.948L336.551 233.341C339.481 230.412 344.229 230.412 347.158 233.341C350.087 236.27 350.087 241.019 347.158 243.948L336.552 254.554C335.087 256.019 333.167 256.751 331.248 256.751Z" fill="white"/>
<path d="M356.499 281.5H341.5C337.357 281.5 334 278.142 334 274C334 269.858 337.357 266.5 341.5 266.5H356.499C360.642 266.5 363.999 269.858 363.999 274C363.999 278.142 360.642 281.5 356.499 281.5Z" fill="white"/>
<path d="M271.497 281.5H256.499C252.356 281.5 248.999 278.142 248.999 274C248.999 269.858 252.356 266.5 256.499 266.5H271.497C275.64 266.5 278.997 269.858 278.997 274C278.997 278.142 275.64 281.5 271.497 281.5Z" fill="white"/>
<path d="M281.749 256.75C279.83 256.75 277.91 256.018 276.445 254.553L265.84 243.948C262.911 241.019 262.911 236.27 265.84 233.341C268.77 230.412 273.518 230.412 276.447 233.341L287.052 243.946C289.981 246.875 289.981 251.624 287.052 254.552C285.588 256.018 283.668 256.75 281.749 256.75Z" fill="white"/>
<path d="M449.9 270.2C501.318 270.2 543 228.518 543 177.1C543 125.682 501.318 84 449.9 84C398.482 84 356.8 125.682 356.8 177.1C356.8 228.518 398.482 270.2 449.9 270.2Z" fill="#EF9614"/>
<path d="M449.9 243.27C486.445 243.27 516.07 213.645 516.07 177.1C516.07 140.555 486.445 110.93 449.9 110.93C413.355 110.93 383.73 140.555 383.73 177.1C383.73 213.645 413.355 243.27 449.9 243.27Z" fill="#FFD00D"/>
<path d="M403.569 177.104C403.569 143.933 427.979 116.465 459.816 111.678C456.58 111.191 453.267 110.935 449.895 110.935C413.35 110.935 383.726 140.56 383.726 177.104C383.726 213.648 413.35 243.273 449.895 243.273C453.267 243.273 456.58 243.017 459.816 242.53C427.979 237.743 403.569 210.276 403.569 177.104Z" fill="#FFAF10"/>
<path d="M462.896 169.937H439.396V159.604H467.896C472.039 159.604 475.396 156.246 475.396 152.104C475.396 147.962 472.039 144.604 467.896 144.604H457.396V138.104C457.396 133.962 454.039 130.604 449.896 130.604C445.753 130.604 442.396 133.962 442.396 138.104V144.604H436.896C430.003 144.604 424.396 150.211 424.396 157.104V172.437C424.396 179.33 430.003 184.937 436.896 184.937H460.396V195.271H431.896C427.753 195.271 424.396 198.629 424.396 202.771C424.396 206.913 427.753 210.271 431.896 210.271H442.396V216.104C442.396 220.246 445.753 223.604 449.896 223.604C454.039 223.604 457.396 220.246 457.396 216.104V210.271H462.896C469.789 210.271 475.396 204.664 475.396 197.771V182.437C475.396 175.544 469.788 169.937 462.896 169.937Z" fill="#DB722C"/>
<path d="M176.1 546.14C220.89 546.14 257.2 509.83 257.2 465.04C257.2 420.25 220.89 383.94 176.1 383.94C131.31 383.94 95 420.25 95 465.04C95 509.83 131.31 546.14 176.1 546.14Z" fill="#EF9614"/>
<path d="M176.1 519.681C206.277 519.681 230.741 495.217 230.741 465.04C230.741 434.863 206.277 410.399 176.1 410.399C145.923 410.399 121.459 434.863 121.459 465.04C121.459 495.217 145.923 519.681 176.1 519.681Z" fill="#FFD00D"/>
<path d="M141.307 465.038C141.307 438.25 160.588 415.981 186.026 411.312C182.807 410.721 179.495 410.397 176.105 410.397C145.927 410.397 121.464 434.861 121.464 465.038C121.464 495.216 145.927 519.679 176.105 519.679C179.495 519.679 182.807 519.354 186.026 518.764C160.588 514.095 141.307 491.825 141.307 465.038Z" fill="#FFAF10"/>
<path d="M187.429 457.828H167.925V450.76H191.785C195.927 450.76 199.285 447.402 199.285 443.26C199.285 439.118 195.927 435.76 191.785 435.76H183.604V431.064C183.604 426.922 180.247 423.564 176.104 423.564C171.961 423.564 168.604 426.922 168.604 431.064V435.76H164.78C158.243 435.76 152.925 441.078 152.925 447.615V460.972C152.925 467.509 158.243 472.827 164.78 472.827H184.285V479.895H160.425C156.282 479.895 152.925 483.253 152.925 487.395C152.925 491.537 156.282 494.895 160.425 494.895H168.605V499.01C168.605 503.152 171.962 506.51 176.105 506.51C180.248 506.51 183.605 503.152 183.605 499.01V494.895H187.429C193.967 494.895 199.285 489.577 199.285 483.04V469.683C199.285 463.146 193.967 457.828 187.429 457.828Z" fill="#DB722C"/>
<path d="M493.39 418.753C512.445 418.753 527.893 403.305 527.893 384.25C527.893 365.195 512.445 349.747 493.39 349.747C474.335 349.747 458.887 365.195 458.887 384.25C458.887 403.305 474.335 418.753 493.39 418.753Z" fill="#FFD00D"/>
<path d="M478.728 384.247C478.728 368.641 489.092 355.461 503.31 351.199C500.168 350.257 496.838 349.744 493.388 349.744C474.333 349.744 458.885 365.192 458.885 384.247C458.885 403.303 474.333 418.75 493.388 418.75C496.838 418.75 500.167 418.237 503.31 417.295C489.093 413.032 478.728 399.853 478.728 384.247Z" fill="#FFAF10"/>
</svg>
